<svg width="450" height="298" viewBox="0 0 450 298" fill="none" xmlns="http://www.w3.org/2000/svg">
<path d="M432.41 199.445C429.161 202.994 425.131 205.637 420.758 207.689H420.753C420.341 207.884 419.93 208.074 419.513 208.253H419.508L419.503 208.259L419.497 208.253H419.492C419.492 208.254 419.492 208.255 419.492 208.255C419.492 208.256 419.491 208.257 419.491 208.257C419.49 208.258 419.49 208.258 419.489 208.258C419.488 208.259 419.487 208.259 419.487 208.259H419.481L419.476 208.253C419.471 208.259 419.471 208.259 419.466 208.253L419.461 208.259L419.455 208.253H419.45C419.445 208.259 419.445 208.259 419.439 208.253H419.434C416.507 209.519 413.501 210.594 410.435 211.471C392.406 216.586 373.456 217.576 354.992 214.367C354.639 214.304 354.291 214.24 353.937 214.177V171.393C354.285 171.246 354.639 171.098 354.992 170.956C357.297 170.001 359.63 169.123 361.992 168.323C365.389 167.163 368.833 166.168 372.325 165.338C383.717 162.581 395.472 161.63 407.16 162.521C409.285 162.679 411.406 162.908 413.521 163.207C417.947 163.824 422.588 164.9 426.671 166.767H426.676C427.272 167.047 427.858 167.337 428.438 167.648C432.067 169.616 435.126 172.322 436.994 176.03C437.665 177.362 438.147 178.78 438.429 180.244V180.255C438.534 180.761 438.608 181.273 438.666 181.779C439.331 188.025 436.741 194.708 432.41 199.445Z" fill="#F2F2F2"/>
<path d="M438.666 181.78C438.614 181.793 438.561 181.8 438.508 181.801C429.472 182.196 420.449 182.784 411.437 183.562H411.422C411.385 183.568 411.353 183.568 411.316 183.573C402.064 184.375 392.832 185.379 383.618 186.585C383.228 186.638 382.843 186.69 382.458 186.738C376.086 187.587 369.726 188.53 363.379 189.565C360.578 190.024 357.782 190.502 354.992 191C354.639 191.063 354.291 191.121 353.937 191.19V189.592C354.291 189.523 354.644 189.465 354.992 189.402C364.286 187.756 373.612 186.319 382.97 185.092C385.322 184.776 387.678 184.477 390.038 184.195C396.853 183.373 403.678 182.662 410.514 182.064C411.015 182.022 411.511 181.98 412.012 181.938C420.763 181.194 429.526 180.63 438.302 180.245C438.344 180.243 438.387 180.246 438.429 180.255C439.273 180.329 439.452 181.595 438.666 181.78Z" fill="white"/>
<path d="M419.901 206.699C408.645 206.782 397.556 202.009 389.594 194.108C387.347 191.871 385.368 189.38 383.694 186.687C383.158 185.826 381.902 186.775 382.434 187.629C388.618 197.545 398.918 204.61 410.274 207.207C413.498 207.938 416.797 208.291 420.104 208.259C421.113 208.252 420.904 206.692 419.901 206.699V206.699Z" fill="white"/>
<path d="M372.325 165.338C372.277 165.486 372.19 165.619 372.075 165.724C371.959 165.828 371.818 165.901 371.666 165.934C369.086 166.61 366.594 167.583 364.239 168.835C360.8 170.651 357.678 173.011 354.992 175.824C354.85 175.967 354.713 176.109 354.581 176.257C354.359 176.489 354.148 176.726 353.937 176.969V174.669C354.275 174.31 354.628 173.957 354.992 173.619C357.113 171.589 359.462 169.812 361.992 168.323C365.389 167.163 368.833 166.168 372.325 165.338Z" fill="white"/>
<path d="M427.604 166.352C420.444 169.429 414.452 174.711 410.502 181.43C410.422 181.622 410.421 181.838 410.5 182.031C410.578 182.224 410.729 182.378 410.92 182.46C411.113 182.537 411.327 182.536 411.519 182.458C411.711 182.38 411.866 182.231 411.951 182.042C415.721 175.697 421.409 170.713 428.195 167.809C429.126 167.411 428.537 165.953 427.604 166.352L427.604 166.352Z" fill="white"/>
<path d="M449.189 121.552C447.965 126.205 445.618 130.419 442.701 134.264L442.696 134.27C442.427 134.628 442.147 134.992 441.857 135.34V135.346C439.832 137.841 437.645 140.2 435.311 142.409C426.921 150.404 417.443 157.175 407.16 162.521C390.982 170.971 372.9 175.967 354.992 176.252C354.855 176.257 354.718 176.257 354.581 176.257C354.364 176.262 354.148 176.262 353.937 176.262V152.288C354.28 151.634 354.633 150.98 354.992 150.331C359.646 141.957 365.321 134.193 371.887 127.217C372.046 127.043 372.209 126.869 372.373 126.7C374.841 124.095 377.429 121.614 380.137 119.258C390.554 110.099 402.592 102.969 415.631 98.2377C419.835 96.7291 424.445 95.5212 428.929 95.2838C429.588 95.2469 430.242 95.2311 430.901 95.2363C435.032 95.2944 438.993 96.2702 442.374 98.686C443.585 99.5557 444.671 100.587 445.602 101.751C445.929 102.157 446.23 102.574 446.52 103.001V103.006C450.012 108.228 450.824 115.344 449.189 121.552Z" fill="#F2F2F2"/>
<path d="M446.52 103V103.005C446.481 103.039 446.439 103.07 446.394 103.095C438.587 107.637 430.878 112.343 423.269 117.216C423.258 117.221 423.253 117.226 423.243 117.231C423.212 117.253 423.18 117.272 423.147 117.289C415.325 122.3 407.613 127.48 400.012 132.829C399.696 133.05 399.374 133.277 399.052 133.504C393.804 137.212 388.61 141 383.471 144.866C373.765 152.177 364.272 159.758 354.992 167.611C354.639 167.906 354.291 168.207 353.937 168.507V166.456C354.285 166.155 354.639 165.854 354.992 165.559C358.548 162.558 362.134 159.598 365.753 156.681C366.834 155.811 367.921 154.941 369.007 154.081C378.66 146.396 388.529 138.997 398.615 131.885H398.62C400.603 130.487 402.59 129.101 404.58 127.728C410.235 123.835 415.953 120.036 421.734 116.329C422.15 116.06 422.573 115.791 422.995 115.522C430.395 110.796 437.892 106.225 445.486 101.808C445.523 101.786 445.562 101.766 445.602 101.75C446.394 101.434 447.137 102.478 446.52 103Z" fill="white"/>
<path d="M441.482 133.786C431.552 139.088 419.514 140.013 408.794 136.715C405.765 135.777 402.855 134.491 400.122 132.883C399.247 132.37 398.576 133.794 399.443 134.302C409.526 140.212 421.929 141.683 433.192 138.709C436.387 137.858 439.472 136.638 442.385 135.074C443.276 134.598 442.366 133.314 441.482 133.786V133.786Z" fill="white"/>
<path d="M367.188 153.085C366.697 150.324 366.528 147.515 366.686 144.714C367.041 138.328 368.997 132.134 372.372 126.701C374.844 124.096 377.432 121.615 380.138 119.257C380.164 119.411 380.149 119.569 380.095 119.716C380.041 119.862 379.949 119.992 379.829 120.093C377.86 121.89 376.106 123.909 374.601 126.11C369.227 133.954 367.129 143.586 368.756 152.955C368.782 153.061 368.78 153.172 368.751 153.278C368.722 153.383 368.667 153.479 368.59 153.557C368.477 153.656 368.341 153.723 368.194 153.752C368.047 153.781 367.895 153.771 367.754 153.723C367.612 153.676 367.485 153.591 367.386 153.48C367.287 153.368 367.218 153.232 367.188 153.085Z" fill="white"/>
<path d="M429.56 94.4778C424.649 100.529 421.797 107.99 421.42 115.775C421.438 115.982 421.538 116.174 421.697 116.308C421.856 116.443 422.061 116.509 422.269 116.493C422.475 116.471 422.664 116.37 422.798 116.212C422.932 116.054 423 115.851 422.987 115.644C423.379 108.273 426.101 101.218 430.761 95.4938C431.401 94.709 430.201 93.6914 429.56 94.4778Z" fill="white"/>
<path d="M374.936 111.81V111.815C374.899 112.269 374.857 112.717 374.809 113.165V113.176C374.443 116.367 373.87 119.532 373.095 122.649C372.726 124.179 372.325 125.698 371.887 127.217C371.835 127.412 371.776 127.608 371.718 127.797V127.803C370.43 132.221 368.891 136.562 367.108 140.805C363.829 148.617 359.769 156.078 354.992 163.075C354.649 163.587 354.296 164.098 353.937 164.605V82.0019C354.291 81.9808 354.639 81.9808 354.992 81.9913C355.161 81.9913 355.33 81.9966 355.499 82.0071C356.987 82.0853 358.457 82.3712 359.866 82.8564C360.362 83.0199 360.842 83.2045 361.317 83.4102C367.071 85.9316 371.592 91.4912 373.554 97.6046C375.026 102.183 375.321 106.999 374.936 111.81Z" fill="#F2F2F2"/>
<path d="M361.317 83.4097C361.304 83.4615 361.285 83.5112 361.258 83.5574C359.122 87.7087 357.034 91.881 354.992 96.0745C354.639 96.7971 354.285 97.525 353.937 98.2477V94.6608C354.285 93.9434 354.637 93.2261 354.992 92.5087C356.569 89.3122 358.173 86.1298 359.803 82.9614C359.821 82.9244 359.842 82.8891 359.866 82.8559C360.351 82.1596 361.554 82.6343 361.317 83.4097Z" fill="white"/>
<path d="M375.105 112.658C375.01 112.827 374.915 112.996 374.809 113.165C373.261 115.864 371.417 118.383 369.313 120.676C365.272 125.06 360.405 128.604 354.992 131.104C354.644 131.273 354.291 131.431 353.937 131.579V129.865C354.291 129.706 354.644 129.543 354.992 129.374C362.828 125.636 369.337 119.597 373.649 112.062C373.711 111.955 373.796 111.862 373.897 111.79C373.998 111.718 374.114 111.668 374.236 111.645C374.358 111.621 374.484 111.624 374.605 111.653C374.725 111.683 374.838 111.737 374.936 111.814C375.003 111.859 375.06 111.916 375.104 111.982C375.149 112.048 375.18 112.123 375.195 112.201C375.211 112.28 375.211 112.36 375.196 112.439C375.18 112.517 375.149 112.592 375.105 112.658Z" fill="white"/>
<path d="M354.992 17.4067V57.495H353.937V57.0678H1.05495V57.495H0V17.4067C0.00453017 12.7916 1.8399 8.36674 5.10332 5.10332C8.36674 1.8399 12.7916 0.00453017 17.4067 0H337.585C342.201 0.00453017 346.625 1.8399 349.889 5.10332C353.152 8.36674 354.988 12.7916 354.992 17.4067Z" fill="#6C63FF"/>
<path d="M337.585 0H17.4067C12.7916 0.00453017 8.36674 1.8399 5.10332 5.10332C1.8399 8.36673 0.00453017 12.7916 0 17.4067V246.332C0.00453017 250.947 1.8399 255.372 5.10332 258.635C8.36674 261.899 12.7916 263.734 17.4067 263.739H337.585C342.201 263.734 346.625 261.899 349.889 258.635C353.152 255.372 354.988 250.947 354.992 246.332V17.4067C354.988 12.7916 353.152 8.36673 349.889 5.10332C346.625 1.8399 342.201 0.00453017 337.585 0ZM353.937 246.332C353.932 250.667 352.207 254.823 349.142 257.888C346.076 260.954 341.921 262.678 337.585 262.684H17.4067C13.0717 262.678 8.91575 260.954 5.85039 257.888C2.78503 254.823 1.06049 250.667 1.05495 246.332V17.4067C1.06049 13.0717 2.78503 8.91575 5.85039 5.8504C8.91575 2.78504 13.0717 1.06049 17.4067 1.05495H337.585C341.921 1.06049 346.076 2.78504 349.142 5.8504C352.207 8.91575 353.932 13.0717 353.937 17.4067V246.332Z" fill="#3F3D56"/>
<path d="M71.7369 39.2973C77.5632 39.2973 82.2864 34.5741 82.2864 28.7478C82.2864 22.9214 77.5632 18.1982 71.7369 18.1982C65.9105 18.1982 61.1873 22.9214 61.1873 28.7478C61.1873 34.5741 65.9105 39.2973 71.7369 39.2973Z" fill="white"/>
<path d="M283.255 39.2973C289.082 39.2973 293.805 34.5741 293.805 28.7478C293.805 22.9214 289.082 18.1982 283.255 18.1982C277.429 18.1982 272.706 22.9214 272.706 28.7478C272.706 34.5741 277.429 39.2973 283.255 39.2973Z" fill="white"/>
<path d="M102.217 146.376H39.4597C36.801 146.373 34.2521 145.315 32.3721 143.435C30.4921 141.555 29.4346 139.006 29.4316 136.348V106.686C29.4346 104.028 30.4921 101.479 32.3721 99.5987C34.2521 97.7187 36.801 96.6612 39.4597 96.6582H102.217C104.876 96.6612 107.425 97.7187 109.305 99.5987C111.185 101.479 112.242 104.028 112.245 106.686V136.348C112.242 139.006 111.185 141.555 109.305 143.435C107.425 145.315 104.876 146.373 102.217 146.376Z" fill="#6C63FF"/>
<path d="M208.978 146.376H146.22C143.562 146.373 141.013 145.315 139.133 143.435C137.253 141.555 136.195 139.006 136.192 136.348V106.686C136.195 104.028 137.253 101.479 139.133 99.5987C141.013 97.7187 143.562 96.6612 146.22 96.6582H208.978C211.636 96.6612 214.185 97.7187 216.065 99.5987C217.945 101.479 219.003 104.028 219.006 106.686V136.348C219.003 139.006 217.945 141.555 216.065 143.435C214.185 145.315 211.636 146.373 208.978 146.376Z" fill="#6C63FF"/>
<path d="M208.978 223.014H146.22C143.481 223.011 140.855 221.922 138.918 219.985C136.981 218.048 135.891 215.421 135.888 212.682V183.02C135.891 180.281 136.981 177.655 138.918 175.718C140.855 173.781 143.481 172.692 146.22 172.688H208.978C211.717 172.692 214.343 173.781 216.28 175.718C218.217 177.655 219.306 180.281 219.31 183.02V212.682C219.306 215.421 218.217 218.048 216.28 219.985C214.343 221.922 211.717 223.011 208.978 223.014Z" fill="#F2F2F2"/>
<path d="M102.011 223.014H39.2539C36.5147 223.011 33.8885 221.922 31.9515 219.985C30.0146 218.048 28.925 215.421 28.922 212.682V183.02C28.925 180.281 30.0146 177.655 31.9515 175.718C33.8885 173.781 36.5147 172.692 39.2539 172.688H102.011C104.75 172.692 107.377 173.781 109.314 175.718C111.251 177.655 112.34 180.281 112.343 183.02V212.682C112.34 215.421 111.251 218.048 109.314 219.985C107.377 221.922 104.75 223.011 102.011 223.014Z" fill="#F2F2F2"/>
<path d="M315.738 223.014H252.981C250.242 223.011 247.616 221.922 245.679 219.985C243.742 218.048 242.652 215.421 242.649 212.682V183.02C242.652 180.281 243.742 177.655 245.679 175.718C247.616 173.781 250.242 172.692 252.981 172.688H315.738C318.477 172.692 321.104 173.781 323.041 175.718C324.978 177.655 326.067 180.281 326.07 183.02V212.682C326.067 215.421 324.978 218.048 323.041 219.985C321.104 221.922 318.477 223.011 315.738 223.014Z" fill="#F2F2F2"/>
<path d="M315.738 146.435H252.981C250.242 146.432 247.616 145.342 245.679 143.406C243.742 141.469 242.652 138.842 242.649 136.103V106.441C242.652 103.702 243.742 101.076 245.679 99.139C247.616 97.202 250.242 96.1125 252.981 96.1094H315.738C318.477 96.1125 321.104 97.202 323.041 99.139C324.978 101.076 326.067 103.702 326.07 106.441V136.103C326.067 138.842 324.978 141.469 323.041 143.406C321.104 145.342 318.477 146.432 315.738 146.435Z" fill="#F2F2F2"/>
<path d="M70.8383 138.535C80.2368 138.535 87.8557 130.916 87.8557 121.517C87.8557 112.119 80.2368 104.5 70.8383 104.5C61.4399 104.5 53.821 112.119 53.821 121.517C53.821 130.916 61.4399 138.535 70.8383 138.535Z" fill="white"/>
<path d="M69.1515 128.009C68.7686 128.009 68.3959 127.886 68.0896 127.656L68.0706 127.642L64.0714 124.58C63.8859 124.438 63.7302 124.261 63.6132 124.059C63.4962 123.857 63.4201 123.634 63.3894 123.402C63.3586 123.171 63.3738 122.936 63.434 122.71C63.4942 122.485 63.5983 122.273 63.7403 122.088C63.8823 121.902 64.0594 121.747 64.2615 121.63C64.4637 121.513 64.6869 121.437 64.9183 121.407C65.1498 121.376 65.385 121.392 65.6105 121.452C65.8361 121.513 66.0475 121.617 66.2326 121.759L68.823 123.745L74.9445 115.762C75.0865 115.577 75.2635 115.422 75.4656 115.305C75.6676 115.188 75.8906 115.112 76.1219 115.082C76.3533 115.051 76.5883 115.066 76.8137 115.127C77.0391 115.187 77.2504 115.291 77.4356 115.433L77.3975 115.485L77.4366 115.434C77.8101 115.721 78.0544 116.145 78.1161 116.612C78.1777 117.079 78.0516 117.551 77.7654 117.925L70.5651 127.315C70.3985 127.532 70.1844 127.707 69.9393 127.827C69.6941 127.947 69.4246 128.01 69.1515 128.009Z" fill="#6C63FF"/>
<path d="M177.903 138.29C187.301 138.29 194.92 130.671 194.92 121.272C194.92 111.874 187.301 104.255 177.903 104.255C168.504 104.255 160.885 111.874 160.885 121.272C160.885 130.671 168.504 138.29 177.903 138.29Z" fill="white"/>
<path d="M176.216 127.765C175.833 127.765 175.46 127.641 175.154 127.412L175.135 127.398L171.136 124.336C170.762 124.049 170.517 123.626 170.455 123.158C170.393 122.691 170.52 122.219 170.806 121.845C171.093 121.471 171.516 121.226 171.983 121.164C172.451 121.102 172.923 121.228 173.297 121.515L175.888 123.501L182.009 115.518C182.151 115.333 182.328 115.177 182.53 115.061C182.732 114.944 182.955 114.868 183.186 114.838C183.418 114.807 183.653 114.822 183.878 114.883C184.104 114.943 184.315 115.047 184.5 115.189L184.462 115.241L184.501 115.19C184.875 115.477 185.119 115.9 185.181 116.367C185.242 116.834 185.116 117.307 184.83 117.681L177.63 127.071C177.463 127.288 177.249 127.463 177.004 127.583C176.759 127.703 176.489 127.765 176.216 127.765Z" fill="#6C63FF"/>
<path d="M292.915 201.576C293.474 200.964 293.892 200.238 294.14 199.447C294.388 198.657 294.459 197.822 294.349 197.001C294.24 196.18 293.951 195.392 293.504 194.695C293.057 193.997 292.463 193.406 291.763 192.963L282.263 142.234L270.709 146.519L283.68 195.037C283.014 196.262 282.82 197.689 283.136 199.047C283.452 200.406 284.255 201.602 285.393 202.408C286.531 203.214 287.926 203.574 289.312 203.421C290.698 203.267 291.98 202.611 292.915 201.576Z" fill="#A0616A"/>
<path d="M200.719 124.168C200.748 124.483 200.752 124.8 200.731 125.116L223.196 142.406L229.567 139.79L234.772 148.888L223.944 154.616C223.069 155.078 222.068 155.245 221.09 155.09C220.113 154.935 219.212 154.468 218.523 153.757L196.068 130.607C194.879 130.875 193.637 130.775 192.507 130.32C191.376 129.864 190.411 129.076 189.74 128.059C189.069 127.042 188.723 125.845 188.749 124.627C188.774 123.409 189.17 122.227 189.884 121.239C190.597 120.252 191.595 119.505 192.743 119.098C193.892 118.691 195.137 118.643 196.313 118.961C197.49 119.279 198.541 119.947 199.328 120.877C200.115 121.808 200.601 122.955 200.719 124.168H200.719Z" fill="#A0616A"/>
<path d="M253.204 291.616H246.737L243.661 271.947L253.205 271.948L253.204 291.616Z" fill="#A0616A"/>
<path d="M254.853 297.884L234.002 297.884V297.62C234.002 296.554 234.212 295.499 234.62 294.514C235.027 293.529 235.625 292.635 236.379 291.881C237.133 291.127 238.027 290.529 239.012 290.122C239.997 289.714 241.052 289.504 242.118 289.504H242.118L254.854 289.504L254.853 297.884Z" fill="#2F2E41"/>
<path d="M277.468 291.616H271.001L267.925 271.947L277.469 271.948L277.468 291.616Z" fill="#A0616A"/>
<path d="M279.117 297.884L258.266 297.884V297.62C258.266 296.554 258.476 295.499 258.883 294.514C259.291 293.529 259.889 292.635 260.643 291.881C261.396 291.127 262.291 290.529 263.276 290.122C264.261 289.714 265.316 289.504 266.382 289.504H266.382L279.118 289.504L279.117 297.884Z" fill="#2F2E41"/>
<path d="M245.395 287.728C244.804 287.729 244.235 287.509 243.798 287.111C243.362 286.714 243.089 286.168 243.034 285.58L237.399 209.787L237.665 209.766L276.446 206.578L276.456 206.854L279.539 285.369C279.551 285.688 279.498 286.006 279.385 286.304C279.271 286.602 279.098 286.875 278.877 287.104C278.655 287.334 278.39 287.517 278.096 287.642C277.802 287.767 277.486 287.831 277.167 287.831H269.563C268.995 287.834 268.446 287.632 268.015 287.262C267.584 286.893 267.301 286.38 267.217 285.819L256.891 222.392C256.881 222.327 256.847 222.267 256.795 222.226C256.743 222.185 256.677 222.164 256.611 222.169C256.545 222.174 256.483 222.204 256.438 222.252C256.393 222.3 256.367 222.364 256.367 222.43L255.898 285.054C255.894 285.659 255.658 286.239 255.24 286.677C254.823 287.114 254.254 287.375 253.65 287.408L245.522 287.725C245.479 287.727 245.437 287.728 245.395 287.728Z" fill="#2F2E41"/>
<path d="M252.014 114.002C259.169 114.002 264.969 108.201 264.969 101.046C264.969 93.8911 259.169 88.0908 252.014 88.0908C244.859 88.0908 239.058 93.8911 239.058 101.046C239.058 108.201 244.859 114.002 252.014 114.002Z" fill="#A0616A"/>
<path d="M254.522 214.621C248.859 214.604 243.224 213.834 237.765 212.331C237.239 212.178 236.783 211.849 236.472 211.398C236.161 210.948 236.015 210.404 236.058 209.859C237.802 183.647 238.212 163.305 234.544 149.231C232.981 143.233 233.691 136.915 236.491 131.898C240.706 124.349 248.452 119.754 256.715 119.912C257.11 119.92 257.509 119.934 257.911 119.954C270.451 120.6 280.222 131.944 279.693 145.243L277.171 208.629C277.162 209.091 277.016 209.541 276.751 209.92C276.487 210.3 276.116 210.593 275.686 210.762C268.92 213.307 261.751 214.615 254.522 214.621Z" fill="#3F3D56"/>
<path d="M236.676 154.097L226.972 142.205C226.696 141.867 226.496 141.473 226.386 141.05C226.276 140.628 226.258 140.187 226.334 139.756C226.41 139.326 226.577 138.918 226.825 138.558C227.073 138.199 227.396 137.897 227.771 137.673L240.916 129.84C242.655 128.437 244.88 127.781 247.102 128.015C249.325 128.25 251.363 129.356 252.771 131.092C254.179 132.827 254.841 135.05 254.612 137.273C254.383 139.496 253.282 141.537 251.55 142.949L241.277 154.223C240.982 154.546 240.622 154.801 240.22 154.972C239.818 155.143 239.384 155.225 238.948 155.213C238.511 155.201 238.082 155.096 237.69 154.903C237.298 154.71 236.953 154.435 236.676 154.097Z" fill="#3F3D56"/>
<path d="M267.204 152.605C266.806 152.427 266.45 152.164 266.162 151.836C265.874 151.508 265.66 151.121 265.535 150.703L261.167 136.089C260.218 134.065 260.111 131.748 260.869 129.646C261.627 127.543 263.187 125.827 265.209 124.874C267.23 123.921 269.547 123.808 271.651 124.56C273.755 125.313 275.475 126.869 276.434 128.888L284.882 141.647C285.123 142.011 285.283 142.423 285.35 142.854C285.418 143.286 285.392 143.727 285.273 144.147C285.155 144.568 284.948 144.958 284.665 145.291C284.383 145.624 284.032 145.892 283.636 146.077L269.735 152.584C269.339 152.769 268.909 152.867 268.472 152.871C268.035 152.874 267.603 152.784 267.204 152.605Z" fill="#3F3D56"/>
<path d="M258.416 111.676L248.813 109.478C247.822 109.251 246.632 108.819 246.494 107.812C246.31 106.459 248.257 105.516 248.077 104.163C247.903 102.851 246.13 102.682 244.865 102.295C243.687 101.882 242.716 101.027 242.158 99.9103C241.599 98.7939 241.497 97.504 241.873 96.3136C240.504 98.242 237.378 98.4072 235.603 96.8448C233.828 95.2824 233.488 92.4477 234.553 90.3369C235.129 89.3001 235.942 88.4139 236.925 87.7502C237.908 87.0866 239.033 86.6643 240.21 86.5177C242.576 86.2494 244.969 86.6954 247.08 87.7984C247.22 86.3038 249.086 85.6979 250.587 85.6846C253.705 85.7209 256.735 86.7284 259.254 88.5669C261.773 90.4054 263.656 92.9834 264.641 95.9421C266.483 101.877 265.251 108.383 260.097 111.856L258.416 111.676Z" fill="#2F2E41"/>
</svg>
